<?xml version="1.0" standalone="no"?><!-- Generator: Gravit.io --><svg xmlns="http://www.w3.org/2000/svg" xmlns:xlink="http://www.w3.org/1999/xlink" style="isolation:isolate" viewBox="0 0 1080 1080" width="1080" height="1080"><defs><clipPath id="_clipPath_kgcK78Mh2FMekPzv7I0BNDvDc5UST3rv"><rect width="1080" height="1080"/></clipPath></defs><g clip-path="url(#_clipPath_kgcK78Mh2FMekPzv7I0BNDvDc5UST3rv)"><rect x="0" y="0" width="1080" height="1080" transform="matrix(1,0,0,1,0,0)" fill="rgb(0,0,0)"/><g><path d=" M 166 911.207 L 166 904.503 L 260.966 176.055 L 260.966 176.055 Q 269.346 111.255 307.332 110.696 L 307.332 110.696 L 307.332 110.696 Q 316.27 110.696 324.091 112.931 L 324.091 112.931 L 324.091 112.931 Q 345.319 120.751 345.319 159.855 L 345.319 159.855 L 345.319 159.855 Q 345.319 207.897 298.953 568.211 L 298.953 568.211 L 298.953 568.211 Q 340.291 495.589 416.823 495.031 L 416.823 495.031 L 416.823 495.031 Q 444.196 495.031 467.658 512.348 L 467.658 512.348 L 467.658 512.348 Q 501.176 536.928 501.176 577.707 L 501.176 577.707 L 501.176 577.707 Q 501.176 583.852 501.176 608.99 L 501.176 608.99 L 501.176 608.99 Q 500.617 666.529 500.617 700.046 L 500.617 700.046 L 500.617 700.046 Q 500.617 815.682 506.762 834.117 L 506.762 834.117 L 506.762 834.117 Q 507.879 838.027 509.555 842.496 L 509.555 842.496 L 509.555 842.496 Q 526.314 886.627 554.245 886.627 L 554.245 886.627 L 554.245 886.627 Q 559.831 886.627 565.976 885.51 L 565.976 885.51 L 565.976 885.51 Q 582.176 881.6 613.459 859.255 L 613.459 859.255 L 613.459 859.255 Q 644.184 836.91 662.618 836.91 L 662.618 836.91 L 662.618 836.91 Q 669.322 836.91 676.025 840.82 L 676.025 840.82 L 676.025 840.82 Q 693.901 851.434 693.901 874.338 L 693.901 874.338 L 693.901 874.338 Q 693.901 876.013 693.343 878.807 L 693.343 878.807 L 693.343 878.807 Q 689.432 905.621 646.977 934.669 L 646.977 934.669 L 646.977 934.669 Q 595.025 969.304 544.19 969.304 L 544.19 969.304 L 544.19 969.304 Q 524.079 969.304 506.203 964.276 L 506.203 964.276 L 506.203 964.276 Q 413.471 936.904 413.471 772.109 L 413.471 772.109 L 413.471 772.109 Q 413.471 758.143 414.588 728.536 L 414.588 728.536 L 414.588 728.536 Q 416.264 693.343 416.264 673.791 L 416.264 673.791 L 416.264 673.791 Q 416.264 591.114 401.74 589.997 L 401.74 589.997 L 401.74 589.997 Q 398.947 589.997 395.595 591.114 L 395.595 591.114 L 395.595 591.114 Q 363.754 603.404 314.594 716.246 L 314.594 716.246 L 314.594 716.246 Q 271.58 816.799 259.291 885.51 L 259.291 885.51 L 259.291 885.51 Q 257.056 896.683 257.056 902.827 L 257.056 902.827 L 257.056 902.827 Q 255.38 922.938 245.883 939.138 L 245.883 939.138 L 245.883 939.138 Q 230.242 965.952 206.221 965.952 L 206.221 965.952 L 206.221 965.952 Q 199.518 965.952 192.814 963.159 L 192.814 963.159 L 192.814 963.159 Q 166 951.987 166 911.207 L 166 911.207 Z " fill="rgb(255,255,255)"/><path d=" M 631.894 348.112 L 631.894 348.112 L 631.894 348.112 Q 632.453 348.112 637.48 348.112 L 637.48 348.112 L 637.48 348.112 Q 668.763 349.229 693.901 349.229 L 693.901 349.229 L 718.481 176.614 L 718.481 176.614 Q 720.715 159.296 724.067 147.565 L 724.067 147.565 L 724.067 147.565 Q 734.122 110.696 764.847 110.696 L 764.847 110.696 L 764.847 110.696 Q 770.992 110.696 777.137 111.813 L 777.137 111.813 L 777.137 111.813 Q 802.833 117.958 802.833 160.414 L 802.833 160.414 L 802.833 160.414 Q 802.833 173.821 780.488 349.229 L 780.488 349.229 L 839.144 349.229 L 839.144 349.229 Q 854.227 349.229 865.4 355.374 L 865.4 355.374 L 865.4 355.374 Q 884.951 367.105 884.951 390.009 L 884.951 390.009 L 884.951 390.009 Q 884.951 400.064 879.924 409.002 L 879.924 409.002 L 879.924 409.002 Q 867.075 430.23 838.027 430.23 L 838.027 430.23 L 768.757 430.23 L 768.757 430.23 Q 725.184 765.406 725.184 806.185 L 725.184 806.185 L 725.184 806.185 Q 725.184 831.882 735.798 854.227 L 735.798 854.227 L 735.798 854.227 Q 751.44 887.745 777.137 887.745 L 777.137 887.745 L 777.137 887.745 Q 783.282 887.745 789.985 886.069 L 789.985 886.069 L 789.985 886.069 Q 805.068 882.158 832.999 860.372 L 832.999 860.372 L 832.999 860.372 Q 860.372 838.586 878.807 838.586 L 878.807 838.586 L 878.807 838.586 Q 886.627 838.586 893.889 841.937 L 893.889 841.937 L 893.889 841.937 Q 914 851.993 914 872.662 L 914 872.662 L 914 872.662 Q 912.324 901.71 870.986 932.993 L 870.986 932.993 L 870.986 932.993 Q 820.709 969.304 764.288 969.304 L 764.288 969.304 L 764.288 969.304 Q 708.984 968.745 673.791 922.938 L 673.791 922.938 L 673.791 922.938 Q 638.039 874.338 638.039 800.599 L 638.039 800.599 L 638.039 800.599 Q 638.039 784.399 682.17 430.23 L 682.17 430.23 L 631.894 430.23 L 631.894 430.23 Q 628.542 430.23 625.19 430.23 L 625.19 430.23 L 625.19 430.23 Q 586.645 426.878 586.645 390.009 L 586.645 390.009 L 586.645 390.009 Q 586.645 379.954 589.997 371.574 L 589.997 371.574 L 589.997 371.574 Q 600.052 348.112 631.894 348.112 Z " fill="rgb(255,255,255)"/></g></g></svg>